HIERARCHY
ROOT Joint1
{
	OFFSET 0.000000 0.000000 0.000000
	CHANNELS 6 Xposition Yposition Zposition Xrotation Yrotation Zrotation
	JOINT Joint2
	{
		OFFSET -0.000000 0.000000 1.456275
		CHANNELS 6 Xposition Yposition Zposition Xrotation Yrotation Zrotation
		JOINT Joint3
		{
			OFFSET -0.000000 0.000002 1.471446
			CHANNELS 6 Xposition Yposition Zposition Xrotation Yrotation Zrotation
			JOINT Joint4
			{
				OFFSET 0.625745 0.000000 0.917755
				CHANNELS 6 Xposition Yposition Zposition Xrotation Yrotation Zrotation
				JOINT Joint5
				{
					OFFSET -0.629534 0.000001 0.940221
					CHANNELS 6 Xposition Yposition Zposition Xrotation Yrotation Zrotation
					JOINT Joint6
					{
						OFFSET -0.000001 0.113772 1.960660
						CHANNELS 6 Xposition Yposition Zposition Xrotation Yrotation Zrotation
						JOINT Joint7
						{
							OFFSET -0.669733 -0.113771 0.388340
							CHANNELS 6 Xposition Yposition Zposition Xrotation Yrotation Zrotation
							End Site
							{
								OFFSET 0.005509 0.005509 0.438980
							}
						}
					}
				}
			}
		}
	}
}
MOTION
Frames: 12
Frame Time: 0.041667
0.000000 0.000000 0.000000 -0.000000 1.019410 -0.026795 -0.000000 0.000000 1.456275 0.000000 -44.988745 -0.000000 -0.000000 0.000002 1.471446 0.000000 -1.133460 -0.040640 0.625744 0.000000 0.917754 0.000004 134.996517 -0.000001 -0.629534 0.000001 0.940221 -0.000000 1.709736 -0.047396 -0.000001 0.113772 1.960660 -87.884993 90.000453 0.271638 -0.669733 -0.113771 0.388340 -0.705493 3.566198 134.982256 
0.000000 0.000000 0.000000 -0.000000 1.019410 -0.101364 -0.000000 0.000000 1.456275 0.000000 -45.011155 -0.000000 -0.000000 0.000002 1.471446 -0.000000 -1.133463 -0.056479 0.625745 0.000000 0.917755 0.000004 134.905771 -0.000001 -0.629534 0.000001 0.940221 -0.000000 1.709736 -0.129861 -0.000001 0.113772 1.960660 -88.300665 90.057711 0.002326 -0.669733 -0.113771 0.388340 -0.706366 3.566198 135.031433 
0.000000 0.000000 0.000000 -0.000000 1.019410 -0.225443 -0.000000 0.000000 1.456275 0.000000 -45.048448 0.000000 -0.000000 0.000002 1.471446 0.000000 -1.133458 -0.082835 0.625745 0.000000 0.917755 0.000004 134.754742 -0.000001 -0.629534 0.000001 0.940221 0.000000 1.709737 -0.267080 -0.000001 0.113772 1.960661 -88.302646 90.152985 0.000754 -0.669733 -0.113771 0.388340 -0.707820 3.566196 135.113272 
0.000000 0.000000 0.000000 -0.000000 1.019410 -0.398868 -0.000000 0.000000 1.456275 0.000000 -45.100566 0.000000 -0.000000 0.000002 1.471446 -0.000000 -1.133460 -0.119673 0.625745 0.000000 0.917755 0.000004 134.543648 -0.000001 -0.629534 0.000001 0.940221 -0.000000 1.709736 -0.458870 -0.000001 0.113772 1.960660 -88.303226 90.286140 0.000444 -0.669733 -0.113771 0.388340 -0.709852 3.566189 135.227664 
0.000000 0.000000 0.000000 -0.000000 1.019410 -0.621475 -0.000000 0.000000 1.456275 0.000000 -45.167464 -0.000000 -0.000000 0.000002 1.471446 0.000000 -1.133457 -0.166957 0.625744 0.000000 0.917755 0.000004 134.272694 -0.000001 -0.629533 0.000001 0.940221 0.000000 1.709736 -0.705049 -0.000001 0.113772 1.960660 -88.303479 90.457065 0.000282 -0.669733 -0.113771 0.388339 -0.712460 3.566176 135.374486 
0.000000 0.000000 0.000000 -0.000000 1.019410 -0.893097 -0.000000 0.000000 1.456275 -0.000000 -45.249085 0.000000 -0.000000 0.000002 1.471446 0.000000 -1.133460 -0.224653 0.625745 0.000000 0.917755 0.000003 133.942072 -0.000001 -0.629533 0.000001 0.940221 -0.000000 1.709737 -1.005434 -0.000001 0.113772 1.960661 -88.303602 90.665625 0.000185 -0.669733 -0.113771 0.388339 -0.715642 3.566150 135.553642 
0.000000 0.000000 0.000000 -0.000000 1.019410 -1.213571 -0.000000 0.000000 1.456275 0.000000 -45.345404 0.000000 -0.000000 0.000002 1.471446 0.000000 -1.133463 -0.292726 0.625745 0.000000 0.917755 0.000003 133.552000 -0.000001 -0.629533 0.000001 0.940221 0.000000 1.709737 -1.359844 -0.000002 0.113772 1.960661 -88.303677 90.911689 0.000138 -0.669733 -0.113771 0.388340 -0.719396 3.566108 135.765009 
0.000000 0.000000 0.000000 -0.000000 1.019410 -1.582731 -0.000000 0.000000 1.456275 -0.000000 -45.456340 0.000000 -0.000000 0.000002 1.471446 0.000000 -1.133455 -0.371140 0.625745 0.000000 0.917755 0.000004 133.102656 -0.000001 -0.629534 0.000001 0.940221 -0.000000 1.709737 -1.768097 -0.000001 0.113772 1.960661 -88.303725 91.195142 0.000106 -0.669733 -0.113771 0.388340 -0.723720 3.566041 136.008491 
0.000000 0.000000 0.000000 -0.000000 1.019410 -2.000413 -0.000000 -0.000000 1.456275 0.000000 -45.581868 -0.000000 -0.000000 0.000002 1.471446 0.000000 -1.133463 -0.459861 0.625745 0.000000 0.917755 0.000003 132.594271 -0.000001 -0.629534 0.000001 0.940221 -0.000000 1.709737 -2.230007 -0.000001 0.113772 1.960660 -88.303766 91.515847 0.000072 -0.669733 -0.113771 0.388340 -0.728612 3.565943 136.283980 
0.000000 0.000000 0.000000 -0.000000 1.019410 -2.466451 -0.000000 0.000000 1.456275 0.000000 -45.721925 -0.000000 -0.000000 0.000002 1.471446 0.000000 -1.133460 -0.558854 0.625744 0.000000 0.917755 0.000004 132.027010 -0.000001 -0.629534 0.000001 0.940221 -0.000000 1.709736 -2.745396 -0.000000 0.113772 1.960661 -88.303793 91.873687 0.000074 -0.669733 -0.113771 0.388339 -0.734071 3.565807 136.591352 
0.000000 0.000000 0.000000 -0.000000 1.019410 -2.980680 -0.000000 0.000000 1.456275 0.000000 -45.876458 -0.000000 -0.000001 0.000002 1.471446 0.000001 -1.133462 -0.668082 0.625744 0.000000 0.917755 0.000004 131.401092 -0.000001 -0.629533 0.000001 0.940221 -0.000000 1.709737 -3.314080 -0.000002 0.113772 1.960661 -88.303807 92.268527 0.000053 -0.669733 -0.113771 0.388340 -0.740092 3.565621 136.930526 
0.000000 0.000000 0.000000 -0.000000 1.019410 -3.542937 -0.000000 0.000000 1.456275 0.000000 -46.045437 0.000000 -0.000001 0.000002 1.471446 0.000000 -1.133465 -0.787513 0.625745 0.000000 0.917755 0.000004 130.716720 -0.000001 -0.629534 0.000001 0.940221 0.000000 1.709737 -3.935876 -0.000001 0.113772 1.960660 -88.303821 92.700243 0.000048 -0.669733 -0.113771 0.388340 -0.746675 3.565379 137.301364 
